<?xml version="1.0" encoding="UTF-8"?>
<svg id="_레이어_2" data-name="레이어 2" xmlns="http://www.w3.org/2000/svg" viewBox="0 0 366.91 242.83">
  <defs>
    <style>
      .cls-1 {
        stroke-miterlimit: 10;
        stroke-width: 13.91px;
      }

      .cls-1, .cls-2 {
        fill: none;
        stroke: #15a0ad;
        stroke-linecap: round;
      }

      .cls-3 {
        fill: #15a0ad;
      }

      .cls-2 {
        stroke-linejoin: round;
        stroke-width: 14px;
      }

      .cls-4 {
        font-family: OTSBAggroM-KSCpc-EUC-H, 'SB AggroOTF';
        font-size: 79.9px;
      }

      .cls-5 {
        fill: #6f448b;
      }
    </style>
  </defs>
  <g id="_레이어_2-2" data-name="레이어 2">
    <g id="oQPnnP">
      <g>
        <path class="cls-5" d="M65.94,0c4.7,2.79,9.34,5.7,14.13,8.34,2.18,1.2,2.96,2.65,2.92,5.13-.15,8.64-.06,17.29-.06,27.05,4.79-2.73,9.4-4.61,13.11-7.62,8.91-7.21,17.14-7.6,26.41-.32,3.71,2.92,5.26,5.26,5.92,10.07,1.62,11.82-2.53,19.04-13.61,23.16-4.4,1.64-8.27,4.72-12.91,7.45,8.02,4.63,15.4,9.05,22.95,13.17,2.55,1.39,3.49,3.03,3.34,5.87-.3,5.96,1.65,13.07-.98,17.59-2.62,4.5-9.8,6.25-14.78,9.52-2.35,1.54-4.02,1.17-6.25-.14-12.58-7.43-25.29-14.64-37.88-22.06-2.8-1.65-4.93-2-8.03-.14-12.51,7.55-25.31,14.61-37.88,22.06-2.65,1.57-4.5,1.44-7.14-.04-5.02-2.8-9.55-6.57-15.21-8.18v-22.98c7.44-6.22,16.43-9.73,24.26-14.75-5.84-3.11-12.16-6.92-18.58-10.55-2.18-1.23-4.41-2.37-5.69-4.68v-21.98c4.82-4.99,11.02-7.8,17.16-10.65,2.27-1.05,4.56.06,6.59,1.32,4.67,2.88,9.47,5.52,14.21,8.27,5.33,3.09,5.66,2.89,5.68-3.06.02-5.15.21-10.31-.06-15.44-.26-4.88,1.32-8.2,5.95-10.32,4.18-1.91,7.81-4.99,12.41-6.09,1.33,0,2.66,0,4,0Z"/>
        <path class="cls-3" d="M128.11,135.97c0-2.51-.9-3.81-2.99-5.09-15.7-9.64-15.63-9.62-31.37-.13-2.35,1.42-3.2,2.91-3.11,5.54.17,4.82-.06,9.65.05,14.48.06,2.85-.68,3.69-3.36,2.07-4.55-2.75-9.55-4.89-13.71-8.14-3.3-2.58-6.7-3.79-9.51-3.82-3.1-.03-6.22,1.31-9.55,3.8-4.94,3.71-10.73,6.29-16.85,9.78,0-5.69-.29-10.36.08-14.98.38-4.85-.78-8.17-5.71-10.13-3.67-1.46-6.97-3.86-10.38-5.94-1.84-1.12-3.38-1.51-5.45-.2C10.94,126.6,5.43,129.7,0,132.91v73.95c1.79,3.02,5.4,3.56,7.82,5.7,5.69,3.29,11.39,6.56,16.98,10.02,4.59,2.37,8.96,5.12,13.51,7.54,7.9,4.2,15.09,9.71,23.63,12.71h5c11.98-7.04,24.53-13.09,35.91-21.14,7.42-4.42,14.79-8.91,22.28-13.2,2.14-1.23,3.01-2.61,3-5.11-.09-22.47-.1-44.94-.02-67.4ZM87.1,192.64c-7.07,4.01-14.12,8.08-21.13,12.21-1.54.91-2.74.61-4.13-.2-7.57-4.45-15.17-8.86-23.65-13.79,8.52-4.98,16.25-9.45,23.92-14.01,1.53-.91,2.75-.66,4.14.16,6.88,4.03,13.76,8.05,20.69,11.99,2.19,1.25,2.67,2.22.15,3.64Z"/>
      </g>
    </g>
    <text class="cls-4" transform="translate(141.6 192.55)"><tspan x="0" y="0">알리미</tspan></text>
    <g>
      <line class="cls-2" x1="155.25" y1="107.19" x2="254.25" y2="27.19"/>
      <line class="cls-2" x1="353.25" y1="107.19" x2="254.25" y2="27.19"/>
      <rect class="cls-1" x="315.25" y="42.19" width="5" height="30"/>
    </g>
  </g>
</svg>