<?xml version="1.0" encoding="UTF-8"?>
<svg id="_레이어_2" data-name="레이어 2" xmlns="http://www.w3.org/2000/svg" viewBox="0 0 195.89 92.58">
  <defs>
    <style>
      .cls-1 {
        stroke-miterlimit: 10;
      }

      .cls-1, .cls-2 {
        fill: none;
        stroke: #15a0ad;
        stroke-linecap: round;
        stroke-width: 7px;
      }

      .cls-3 {
        fill: #15a0ad;
      }

      .cls-2 {
        stroke-linejoin: round;
      }

      .cls-4 {
        font-family: OTSBAggroM-KSCpc-EUC-H, 'SB AggroOTF';
        font-size: 52.96px;
      }

      .cls-5 {
        fill: #6f448b;
      }
    </style>
  </defs>
  <g id="_레이어_2-2" data-name="레이어 2">
    <g>
      <g id="oQPnnP">
        <g>
          <path class="cls-5" d="M13.97,29.87c1,.59,1.98,1.21,2.99,1.77.46.25.63.56.62,1.09-.03,1.83-.01,3.66-.01,5.73,1.01-.58,1.99-.98,2.78-1.61,1.89-1.53,3.63-1.61,5.6-.07.79.62,1.11,1.11,1.25,2.13.34,2.51-.54,4.04-2.88,4.91-.93.35-1.75,1-2.74,1.58,1.7.98,3.26,1.92,4.86,2.79.54.29.74.64.71,1.24-.06,1.26.35,2.77-.21,3.73-.55.95-2.08,1.33-3.13,2.02-.5.33-.85.25-1.32-.03-2.67-1.57-5.36-3.1-8.03-4.68-.59-.35-1.05-.42-1.7-.03-2.65,1.6-5.36,3.1-8.03,4.68-.56.33-.95.3-1.51,0-1.06-.59-2.02-1.39-3.22-1.73v-4.87c1.58-1.32,3.48-2.06,5.14-3.13-1.24-.66-2.58-1.47-3.94-2.24-.46-.26-.93-.5-1.2-.99v-4.66c1.02-1.06,2.34-1.65,3.64-2.26.48-.22.97.01,1.4.28.99.61,2.01,1.17,3.01,1.75,1.13.66,1.2.61,1.2-.65,0-1.09.05-2.18-.01-3.27-.05-1.03.28-1.74,1.26-2.19.89-.41,1.66-1.06,2.63-1.29.28,0,.56,0,.85,0Z"/>
          <path class="cls-3" d="M27.15,58.69c0-.53-.19-.81-.63-1.08-3.33-2.04-3.31-2.04-6.65-.03-.5.3-.68.62-.66,1.17.03,1.02-.01,2.05,0,3.07.01.6-.14.78-.71.44-.96-.58-2.02-1.04-2.9-1.72-.7-.55-1.42-.8-2.01-.81-.66,0-1.32.28-2.02.81-1.05.79-2.27,1.33-3.57,2.07,0-1.21-.06-2.2.02-3.17.08-1.03-.17-1.73-1.21-2.15-.78-.31-1.48-.82-2.2-1.26-.39-.24-.72-.32-1.16-.04C2.32,56.7,1.15,57.36,0,58.04v15.67c.38.64,1.14.75,1.66,1.21,1.21.7,2.41,1.39,3.6,2.12.97.5,1.9,1.09,2.86,1.6,1.67.89,3.2,2.06,5.01,2.69h1.06c2.54-1.49,5.2-2.77,7.61-4.48,1.57-.94,3.13-1.89,4.72-2.8.45-.26.64-.55.64-1.08-.02-4.76-.02-9.52,0-14.28ZM18.46,70.7c-1.5.85-2.99,1.71-4.48,2.59-.33.19-.58.13-.87-.04-1.61-.94-3.22-1.88-5.01-2.92,1.81-1.06,3.44-2,5.07-2.97.32-.19.58-.14.88.03,1.46.85,2.92,1.71,4.38,2.54.46.26.56.47.03.77Z"/>
        </g>
      </g>
      <text class="cls-4" transform="translate(38.84 71.87)"><tspan x="0" y="0">알리미</tspan></text>
      <g>
        <line class="cls-2" x1="130.75" y1="28.41" x2="161.57" y2="3.5"/>
        <line class="cls-2" x1="192.39" y1="28.41" x2="161.57" y2="3.5"/>
        <rect class="cls-1" x="180.56" y="8.17" width="1.56" height="9.34"/>
      </g>
    </g>
  </g>
</svg>